<svg id="SvgjsSvg1001" width="288" height="288" xmlns="http://www.w3.org/2000/svg" version="1.1" xmlns:xlink="http://www.w3.org/1999/xlink" xmlns:svgjs="http://svgjs.com/svgjs"><defs id="SvgjsDefs1002"></defs><g id="SvgjsG1008"><svg xmlns="http://www.w3.org/2000/svg" fill="none" viewBox="-.5 0 25 25" width="288" height="288"><path stroke="#dfdfdf" stroke-linecap="round" stroke-linejoin="round" stroke-width="1.5" d="M11.5 4.25H6.5C5.43913 4.25 4.42178 4.67142 3.67163 5.42157 2.92149 6.17172 2.5 7.18913 2.5 8.25V18.25C2.5 19.3109 2.92149 20.3283 3.67163 21.0784 4.42178 21.8286 5.43913 22.25 6.5 22.25H16.5C17.5609 22.25 18.5783 21.8286 19.3284 21.0784 20.0786 20.3283 20.5 19.3109 20.5 18.25V13.25M11.4297 13.38L20.9197 3.89001M15.7891 3.25H19.499C20.0295 3.25 20.5382 3.46074 20.9133 3.83582 21.2883 4.21089 21.499 4.71957 21.499 5.25V8.96002" class="colorStroke000 svgStroke"></path></svg></g></svg>